<svg width="158" height="140" viewBox="0 0 158 140" fill="none" xmlns="http://www.w3.org/2000/svg">
<path d="M104.6 -9.53674e-06V-4.00001H101.425L100.704 -0.907732L104.6 -9.53674e-06ZM158 -9.53674e-06H162V-4.00001H158V-9.53674e-06ZM158 3.79999V7.79999H162V3.79999H158ZM147 3.79999V-0.200011H143V3.79999H147ZM147 136.2H143V140.2H147V136.2ZM158 136.2H162V132.2H158V136.2ZM158 140V144H162V140H158ZM97 140H93V144H97V140ZM97 136.2V132.2H93V136.2H97ZM108 136.2V140.2H112V136.2H108ZM108 11.2H112V7.19999H108V11.2ZM107.2 11.2V7.19999H104.025L103.304 10.2926L107.2 11.2ZM77.2 140V144H80.3754L81.0957 140.907L77.2 140ZM52.2 140L48.3403 141.05L49.1427 144H52.2V140ZM17 10.6L20.8597 9.55005L20.0573 6.6H17V10.6ZM16.2 10.6V6.6H12.2V10.6H16.2ZM16.2 136.2H12.2V140.2H16.2V136.2ZM27.2 136.2H31.2V132.2H27.2V136.2ZM27.2 140V144H31.2V140H27.2ZM7.45058e-08 140H-4V144H7.45058e-08V140ZM7.45058e-08 136.2V132.2H-4V136.2H7.45058e-08ZM11 136.2V140.2H15V136.2H11ZM11 3.79999H15V-0.200011H11V3.79999ZM7.45058e-08 3.79999H-4V7.79999H7.45058e-08V3.79999ZM7.45058e-08 -9.53674e-06V-4.00001H-4V-9.53674e-06H7.45058e-08ZM54 -9.53674e-06L57.8729 -1.0002L57.0982 -4.00001H54V-9.53674e-06ZM80.6 103L76.7271 104L84.4957 103.908L80.6 103ZM104.6 3.99999H158V-4.00001H104.6V3.99999ZM154 -9.53674e-06V3.79999H162V-9.53674e-06H154ZM158 -0.200011H147V7.79999H158V-0.200011ZM143 3.79999V136.2H151V3.79999H143ZM147 140.2H158V132.2H147V140.2ZM154 136.2V140H162V136.2H154ZM158 136H97V144H158V136ZM101 140V136.2H93V140H101ZM97 140.2H108V132.2H97V140.2ZM112 136.2V11.2H104V136.2H112ZM108 7.19999H107.2V15.2H108V7.19999ZM103.304 10.2926L73.3043 139.093L81.0957 140.907L111.096 12.1074L103.304 10.2926ZM77.2 136H52.2V144H77.2V136ZM56.0597 138.95L20.8597 9.55005L13.1403 11.6499L48.3403 141.05L56.0597 138.95ZM17 6.6H16.2V14.6H17V6.6ZM12.2 10.6V136.2H20.2V10.6H12.2ZM16.2 140.2H27.2V132.2H16.2V140.2ZM23.2 136.2V140H31.2V136.2H23.2ZM27.2 136H7.45058e-08V144H27.2V136ZM4 140V136.2H-4V140H4ZM7.45058e-08 140.2H11V132.2H7.45058e-08V140.2ZM15 136.2V3.79999H7V136.2H15ZM11 -0.200011H7.45058e-08V7.79999H11V-0.200011ZM4 3.79999V-9.53674e-06H-4V3.79999H4ZM7.45058e-08 3.99999H54V-4.00001H7.45058e-08V3.99999ZM50.1271 1.00018L76.7271 104L84.4729 102L57.8729 -1.0002L50.1271 1.00018ZM84.4957 103.908L108.496 0.907713L100.704 -0.907732L76.7044 102.092L84.4957 103.908Z" fill="white"/>
</svg>
