<svg width="311" height="311" viewBox="0 0 311 311" fill="none" xmlns="http://www.w3.org/2000/svg">
<rect width="311" height="311" rx="69" fill="black"/>
<path d="M182.6 80V76H179.425L178.704 79.0923L182.6 80ZM236 80H240V76H236V80ZM236 83.8V87.8H240V83.8H236ZM225 83.8V79.8H221V83.8H225ZM225 216.2H221V220.2H225V216.2ZM236 216.2H240V212.2H236V216.2ZM236 220V224H240V220H236ZM175 220H171V224H175V220ZM175 216.2V212.2H171V216.2H175ZM186 216.2V220.2H190V216.2H186ZM186 91.2H190V87.2H186V91.2ZM185.2 91.2V87.2H182.025L181.304 90.2926L185.2 91.2ZM155.2 220V224H158.375L159.096 220.907L155.2 220ZM130.2 220L126.34 221.05L127.143 224H130.2V220ZM95 90.6L98.8597 89.5501L98.0573 86.6H95V90.6ZM94.2 90.6V86.6H90.2V90.6H94.2ZM94.2 216.2H90.2V220.2H94.2V216.2ZM105.2 216.2H109.2V212.2H105.2V216.2ZM105.2 220V224H109.2V220H105.2ZM78 220H74V224H78V220ZM78 216.2V212.2H74V216.2H78ZM89 216.2V220.2H93V216.2H89ZM89 83.8H93V79.8H89V83.8ZM78 83.8H74V87.8H78V83.8ZM78 80V76H74V80H78ZM132 80L135.873 78.9998L135.098 76H132V80ZM158.6 183L154.727 184L162.496 183.908L158.6 183ZM182.6 84H236V76H182.6V84ZM232 80V83.8H240V80H232ZM236 79.8H225V87.8H236V79.8ZM221 83.8V216.2H229V83.8H221ZM225 220.2H236V212.2H225V220.2ZM232 216.2V220H240V216.2H232ZM236 216H175V224H236V216ZM179 220V216.2H171V220H179ZM175 220.2H186V212.2H175V220.2ZM190 216.2V91.2H182V216.2H190ZM186 87.2H185.2V95.2H186V87.2ZM181.304 90.2926L151.304 219.093L159.096 220.907L189.096 92.1074L181.304 90.2926ZM155.2 216H130.2V224H155.2V216ZM134.06 218.95L98.8597 89.5501L91.1403 91.6499L126.34 221.05L134.06 218.95ZM95 86.6H94.2V94.6H95V86.6ZM90.2 90.6V216.2H98.2V90.6H90.2ZM94.2 220.2H105.2V212.2H94.2V220.2ZM101.2 216.2V220H109.2V216.2H101.2ZM105.2 216H78V224H105.2V216ZM82 220V216.2H74V220H82ZM78 220.2H89V212.2H78V220.2ZM93 216.2V83.8H85V216.2H93ZM89 79.8H78V87.8H89V79.8ZM82 83.8V80H74V83.8H82ZM78 84H132V76H78V84ZM128.127 81.0002L154.727 184L162.473 182L135.873 78.9998L128.127 81.0002ZM162.496 183.908L186.496 80.9077L178.704 79.0923L154.704 182.092L162.496 183.908Z" fill="white"/>
</svg>
